<svg width="1920" height="1080" viewBox="0 0 1920 1080" fill="none" xmlns="http://www.w3.org/2000/svg">
<rect width="1920" height="1080" fill="black"/>
<path d="M205.613 187.096H134.051V203.131H205.613V187.096Z" fill="white"/>
<path d="M1783.96 821.264H1800V892.809H1783.96V821.264Z" fill="white"/>
<path d="M1711.82 893.411H1783.38V909.446H1711.82V893.411Z" fill="white"/>
<path fill-rule="evenodd" clip-rule="evenodd" d="M1132.81 829.081H1116.77V842.667H1101.98V829.081H1085.94V842.667H1073.59V858.702H1085.94V873.493H1073.59V889.527H1085.94V900.625H1101.98V889.527H1116.77V900.625H1132.81V889.527H1145.16V873.493H1132.81V858.702H1145.16V842.667H1132.81V829.081ZM1101.98 873.493H1116.77V858.702H1101.98V873.493Z" fill="white"/>
<path fill-rule="evenodd" clip-rule="evenodd" d="M770.349 829.348H841.91V900.852H770.349V829.348ZM786.387 884.817H825.872V845.382H786.387V884.817Z" fill="white"/>
<path d="M1448.3 813.293L1384.59 845.896L1391.9 860.17L1455.61 827.567L1448.3 813.293Z" fill="white"/>
<path d="M1476.66 867.541L1412.96 900.144L1420.27 914.418L1483.97 881.815L1476.66 867.541Z" fill="white"/>
<path d="M1399.38 873.013L1463.09 840.41L1470.4 854.684L1406.69 887.287L1399.38 873.013Z" fill="white"/>
<path d="M1117.63 484.111H1101.59V555.656H1117.63V484.111Z" fill="white"/>
<path d="M1433.22 488.127L1433.22 488.125L1483.82 538.714L1472.48 550.053L1433.22 510.802L1393.96 550.055L1382.61 538.716L1433.22 488.127Z" fill="white"/>
<path d="M469.959 824.364L481.3 813.026L531.901 863.615L531.799 863.717L531.901 863.819L481.3 914.408L469.959 903.07L501.301 871.735H439.277V855.7H501.303L469.959 824.364Z" fill="white"/>
<path d="M1728.97 526.637L1775.26 472.07L1787.49 482.442L1770.22 502.805L1782.38 513.117L1736.09 567.684L1723.86 557.313L1741.14 536.949L1728.97 526.637Z" fill="white"/>
<path d="M148.356 807.005L128.14 875.638L143.525 880.168L163.742 811.535L148.356 807.005Z" fill="white"/>
<path d="M204.153 856.11L137.894 883.147L143.904 897.867L139.288 897.394L137.65 913.345L208.84 920.65L210.477 904.698L144.193 897.897L210.214 870.957L204.153 856.11Z" fill="white"/>
<path d="M1756.81 182.695L1776.44 163.07L1787.78 174.408L1768.15 194.034L1787.78 213.659L1776.44 224.997L1756.81 205.372L1737.18 224.997L1725.84 213.659L1745.47 194.034L1725.84 174.408L1737.18 163.07L1756.81 182.695Z" fill="white"/>
<path d="M1101.25 159H1117.28V186.755H1145.05V202.79H1117.28V230.545H1101.25V202.79H1073.48V186.755H1101.25V159Z" fill="white"/>
<path d="M525.974 526.799L525.974 510.761L454.429 510.761L454.429 526.799L525.974 526.799Z" fill="white"/>
<path d="M516.12 494.742L516.12 478.704L444.576 478.704L444.576 494.742L516.12 494.742Z" fill="white"/>
<path d="M516.12 542.838L516.12 558.877L444.576 558.877L444.576 542.838L516.12 542.838Z" fill="white"/>
<path d="M1398.67 171.041H1470.23V187.076H1398.67V171.041Z" fill="white"/>
<path d="M1398.67 203.452H1470.23V219.487H1398.67V203.452Z" fill="white"/>
<path d="M770.646 187.584L776.944 172.837L806.944 185.644L836.896 173.621L842.872 188.501L827.805 194.549L842.759 200.933L836.461 215.68L806.755 202.999L776.463 215.158L770.487 200.278L785.894 194.094L770.646 187.584Z" fill="white"/>
<path d="M762.348 486.118H833.909V502.153H762.348V486.118Z" fill="white"/>
<path d="M848.222 502.193H776.66V518.228H848.222V502.193Z" fill="white"/>
<path d="M762.348 518.268H833.909V534.303H762.348V518.268Z" fill="white"/>
<path d="M778.447 534.363H850.008V550.398H778.447V534.363Z" fill="white"/>
<path d="M183.987 476.084L170.101 484.109L205.917 546.053L219.803 538.027L183.987 476.084Z" fill="white"/>
<path d="M205.644 545.916H134.082V561.951H205.644V545.916Z" fill="white"/>
<path d="M120 538.037L155.817 476.093L169.703 484.119L133.886 546.062L120 538.037Z" fill="white"/>
<path d="M478.972 159H495.011V175.413L506.608 163.818L517.949 175.157L506.348 186.755H522.772V202.79H506.328L517.949 214.408L506.608 225.746L495.011 214.151V230.545H478.972V214.124L467.348 225.746L456.007 214.408L467.628 202.79H451.21V186.755H467.608L456.007 175.157L467.348 163.818L478.972 175.44V159Z" fill="white"/>
</svg>
